<?xml version="1.0" encoding="UTF-8"?>
<svg width="210mm" height="297mm" version="1.1" viewBox="0 0 210 297" xml:space="preserve" xmlns="http://www.w3.org/2000/svg"><g stroke="#000" stroke-width=".26458px"><path d="m80.73 192.6s-6.7745 5.5827-4.3595 11.981c2.415 6.3982 6.4295 6.7745 6.7432 6.7432 0.31363-0.0314 2.2582 0.28227 5.4573-2.0073 3.1991-2.2895 11.981-9.3777 11.981-9.3777s3.9518-2.8541 6.2414-2.76c2.2895 0.0941 5.8336 0.78409 6.5864 1.5682s7.9664 5.2691 7.9664 5.2691 1.7877 0.81546 7.3391 0.15682 11.542-4.0145 12.545-4.7045c1.0036-0.69 4.1714-3.2304 2.0073-6.6491-2.1641-3.4186-11.238-12.331-13.33-14.02-1.6701-1.3486-2.4444-1.9787-2.1836-1.771 1.0965 0.87299-14.376-11.339-14.376-11.339"/><path d="m97.478 193.2-18.975-11.134z" fill="none"/><g><path d="m116.52 159.92s2.2268 5.3004 6.3982 7.245c4.1714 1.9446 7.9977 3.2618 11.291 0.90955 3.2932-2.3523 4.8927-1.9759 7.1195-7.935 2.2268-5.9591 2.7914-16.717 2.7914-17.658 0-0.94091 1.035-7.9977-1.6936-12.608-2.7286-4.6105-5.4411-5.2532-5.4411-5.2532"/><path d="m115.01 119.02s-1.7881-5.994-3.9204-8.9073c-2.0915-2.8574-3.6738-5.4349-6.555-7.0568-4.4482-2.504-6.9-1.3173-8.28-0.12545-1.38 1.1918-3.4543 5.9943-4.14 10.287-0.72136 4.5164-1.0157 7.8273 0.03136 12.295 1.1238 4.7946 1.8819 6.5145 3.5127 8.625 1.5995 2.07 3.8577 4.5477 7.4959 5.3004"/><path d="m77.665 146.81s5.2782-1.1976 6.9637-2.9718 3.7702-3.5927 4.3468-9.4919c0.57661-5.8992-0.22177-10.512-2.7056-14.504-2.4839-3.9919-4.3468-7.0968-7.7621-9.8468-3.4153-2.75-5.7661-3.3266-7.7621-2.2177-1.996 1.1089-3.7702 2.75-4.5242 4.6129-0.75403 1.8629-2.6613 8.4718-2.3065 11.798 0.35484 3.3266 0.62097 10.956 2.7056 14.548 2.0847 3.5928 5.1457 6.8057 6.7863 7.4073 1.3306 0.48789 4.2581 0.66532 4.2581 0.66532z"/><path d="m79.302 185.44s-5.002 1.8321-8.8911 1.1421c-3.8891-0.69-7.0254-1.8818-8.4682-3.6068-1.4427-1.725-7.3391-6.9627-8.625-11.573s-2.2192-7.0446-2.415-12.922c-0.13458-4.0407 0.81545-7.0882 0.81545-7.0882s1.0036-2.3836 1.8505-3.4814c0.84682-1.0977 2.6659-2.5718 3.9518-2.76s5.8964-0.2509 7.8409 0.97227c1.9445 1.2232 5.7709 3.6382 7.7154 6.21 1.9445 2.5718 6.9627 9.3464 6.9627 9.3464l3.2932 4.9868s1.035 2.3836 1.38 3.4186c0.345 1.035 0.18818 0.84682 0.18818 0.84682"/></g><path d="m97.541 193.2 71.007-122.91-19.038-11.009-70.958 122.8 3.6371 14.504 0.8871 0.48791z" fill="#1b34d2"/><path d="m82.8 196.9 7.6527-7.6527 70.999-123.03-4.9234-3.0161-71.125 123.09z" fill="#1bd2c7"/></g></svg>
